<svg width="20" height="20" viewBox="0 0 20 20" fill="none" xmlns="http://www.w3.org/2000/svg">
<path d="M17.3083 16.275C17.3083 16.575 17.2417 16.8834 17.1 17.1834C16.9583 17.4834 16.775 17.7667 16.5333 18.0334C16.125 18.4834 15.675 18.8084 15.1667 19.0167C14.6667 19.225 14.125 19.3334 13.5417 19.3334C12.6917 19.3334 11.7833 19.1334 10.825 18.725C9.86666 18.3167 8.90832 17.7667 7.95832 17.075C6.99999 16.375 6.09166 15.6 5.22499 14.7417C4.36666 13.875 3.59166 12.9667 2.89999 12.0167C2.21666 11.0667 1.66666 10.1167 1.26666 9.17502C0.866657 8.22502 0.666656 7.31669 0.666656 6.45002C0.666656 5.88335 0.766656 5.34169 0.966656 4.84169C1.16666 4.33335 1.48332 3.86669 1.92499 3.45002C2.45832 2.92502 3.04166 2.66669 3.65832 2.66669C3.89166 2.66669 4.12499 2.71669 4.33332 2.81669C4.54999 2.91669 4.74166 3.06669 4.89166 3.28335L6.82499 6.00835C6.97499 6.21669 7.08332 6.40835 7.15832 6.59169C7.23332 6.76669 7.27499 6.94169 7.27499 7.10002C7.27499 7.30002 7.21666 7.50002 7.09999 7.69169C6.99166 7.88335 6.83332 8.08335 6.63332 8.28335L5.99999 8.94169C5.90832 9.03335 5.86666 9.14169 5.86666 9.27502C5.86666 9.34169 5.87499 9.40002 5.89166 9.46669C5.91666 9.53335 5.94166 9.58335 5.95832 9.63335C6.10832 9.90835 6.36666 10.2667 6.73332 10.7C7.10832 11.1334 7.50832 11.575 7.94166 12.0167C8.39166 12.4584 8.82499 12.8667 9.26666 13.2417C9.69999 13.6084 10.0583 13.8584 10.3417 14.0084C10.3833 14.025 10.4333 14.05 10.4917 14.075C10.5583 14.1 10.625 14.1084 10.7 14.1084C10.8417 14.1084 10.95 14.0584 11.0417 13.9667L11.675 13.3417C11.8833 13.1334 12.0833 12.975 12.275 12.875C12.4667 12.7584 12.6583 12.7 12.8667 12.7C13.025 12.7 13.1917 12.7334 13.375 12.8084C13.5583 12.8834 13.75 12.9917 13.9583 13.1334L16.7167 15.0917C16.9333 15.2417 17.0833 15.4167 17.175 15.625C17.2583 15.8334 17.3083 16.0417 17.3083 16.275Z" stroke="#4F4F4F" stroke-width="1.2" stroke-miterlimit="10"/>
<path d="M14.4167 8.5001C14.4167 8.0001 14.025 7.23344 13.4417 6.60844C12.9084 6.03344 12.2 5.58344 11.5 5.58344" stroke="#4F4F4F" stroke-width="1.2" stroke-linecap="round" stroke-linejoin="round"/>
<path d="M17.3334 8.50002C17.3334 5.27502 14.725 2.66669 11.5 2.66669" stroke="#4F4F4F" stroke-width="1.2" stroke-linecap="round" stroke-linejoin="round"/>
</svg>
