<svg width="121" height="108" viewBox="0 0 121 108" fill="none" xmlns="http://www.w3.org/2000/svg">
<path fill-rule="evenodd" clip-rule="evenodd" d="M58.0146 47.7867C46.576 21.5354 52.9565 25.0872 70.395 0.183594C73.0715 6.33364 75.7554 12.4826 78.4467 18.6306C75.5926 16.4519 64.8105 38.0543 58.0146 47.7867Z" fill="#FFC60B" stroke="#F9DF00" stroke-width="0.180759" stroke-miterlimit="22.93"/>
<path fill-rule="evenodd" clip-rule="evenodd" d="M85.7406 47.7867C74.2989 21.5354 80.6667 25.0872 98.1084 0.183594C100.789 6.33364 103.468 12.4826 106.144 18.6306C103.312 16.4519 92.5397 38.0543 85.7406 47.7867Z" fill="#FFC60B" stroke="#F9DF00" stroke-width="0.180759" stroke-miterlimit="22.93"/>
<path fill-rule="evenodd" clip-rule="evenodd" d="M19.1514 36.564L0.904175 69.3797H34.5001L19.1514 36.564Z" fill="#FFC60B" stroke="#F9DF00" stroke-width="0.180759" stroke-miterlimit="22.93"/>
<path fill-rule="evenodd" clip-rule="evenodd" d="M34.0023 60.0884L38.1915 69.7194L62.9841 69.5418L48.4472 36.6372L34.0023 60.0884Z" fill="#FFC60B" stroke="#F9DF00" stroke-width="0.180759" stroke-miterlimit="22.93"/>
<path fill-rule="evenodd" clip-rule="evenodd" d="M61.9596 60.0884L66.1519 69.7194L90.9414 69.5418L76.4045 36.6372L61.9596 60.0884Z" fill="#FFC60B" stroke="#F9DF00" stroke-width="0.180759" stroke-miterlimit="22.93"/>
<path fill-rule="evenodd" clip-rule="evenodd" d="M91.3949 60.0884L95.5872 69.7194L120.377 69.5418L105.84 36.6372L91.3949 60.0884Z" fill="#FFC60B" stroke="#F9DF00" stroke-width="0.180759" stroke-miterlimit="22.93"/>
<path fill-rule="evenodd" clip-rule="evenodd" d="M29.3819 47.7867C17.9464 21.5354 24.3079 25.0872 41.7496 0.183594L49.7855 18.6306C46.9568 16.4519 36.1873 38.0543 29.3819 47.7867Z" fill="#FFC60B" stroke="#F9DF00" stroke-width="0.180759" stroke-miterlimit="22.93"/>
<path d="M21.9357 97.6504V83.6967H16.4488V81.0951H30.4972V83.6967H25.0103V97.6504H21.9357ZM32.4831 97.6504V85.2663H35.2429V88.6754L34.9182 87.6782C35.2892 86.8433 35.869 86.2094 36.6575 85.7765C37.4615 85.3436 38.4587 85.1272 39.6492 85.1272V87.8869C39.5255 87.856 39.4095 87.8405 39.3013 87.8405C39.1931 87.8251 39.0848 87.8174 38.9766 87.8174C37.8789 87.8174 37.0054 88.142 36.356 88.7914C35.7067 89.4253 35.382 90.3761 35.382 91.6439V97.6504H32.4831ZM42.1083 97.6504V85.2663H45.0072V97.6504H42.1083ZM43.5694 83.2255C43.0282 83.2255 42.5799 83.0554 42.2243 82.7153C41.8841 82.3752 41.7141 81.9655 41.7141 81.4862C41.7141 80.9914 41.8841 80.5817 42.2243 80.2571C42.5799 79.9169 43.0282 79.7468 43.5694 79.7468C44.1105 79.7468 44.5511 79.9092 44.8913 80.2339C45.2469 80.5431 45.4247 80.9373 45.4247 81.4166C45.4247 81.9268 45.2546 82.3597 44.9145 82.7153C44.5743 83.0554 44.126 83.2255 43.5694 83.2255ZM53.2036 97.6504L60.5088 81.4166H63.4773L70.8057 97.6504H67.6517L61.3669 83.0168H62.5729L56.3113 97.6504H53.2036ZM56.5664 93.8934L57.378 91.5279H66.1443L66.956 93.8934H56.5664ZM70.982 97.6504L78.2872 81.4166H81.2557L88.5841 97.6504H85.4301L79.1453 83.0168H80.3512L74.0896 97.6504H70.982ZM74.3447 93.8934L75.1564 91.5279H83.9226L84.7343 93.8934H74.3447ZM88.7603 97.6504L96.0655 81.4166H99.034L106.362 97.6504H103.208L96.9236 83.0168H98.1296L91.868 97.6504H88.7603ZM92.1231 93.8934L92.9347 91.5279H101.701L102.513 93.8934H92.1231Z" fill="#231F20"/>
<path d="M23.5993 105.74C23.1854 105.74 22.7999 105.673 22.4429 105.538C22.091 105.399 21.7831 105.205 21.5192 104.956C21.2605 104.703 21.0587 104.405 20.9138 104.064C20.7689 103.722 20.6965 103.35 20.6965 102.946C20.6965 102.542 20.7689 102.17 20.9138 101.828C21.0587 101.487 21.2631 101.192 21.527 100.944C21.7909 100.69 22.0988 100.496 22.4506 100.361C22.8025 100.222 23.188 100.152 23.6071 100.152C24.0521 100.152 24.4583 100.229 24.8257 100.385C25.1931 100.535 25.5035 100.76 25.7571 101.06L25.1051 101.673C24.9085 101.461 24.6886 101.303 24.4454 101.2C24.2022 101.091 23.9383 101.037 23.6537 101.037C23.3691 101.037 23.1078 101.083 22.8698 101.176C22.6369 101.27 22.4325 101.401 22.2566 101.572C22.0858 101.743 21.9513 101.945 21.853 102.178C21.7598 102.41 21.7133 102.667 21.7133 102.946C21.7133 103.225 21.7598 103.482 21.853 103.714C21.9513 103.947 22.0858 104.149 22.2566 104.32C22.4325 104.491 22.6369 104.623 22.8698 104.716C23.1078 104.809 23.3691 104.855 23.6537 104.855C23.9383 104.855 24.2022 104.804 24.4454 104.7C24.6886 104.591 24.9085 104.428 25.1051 104.211L25.7571 104.832C25.5035 105.127 25.1931 105.352 24.8257 105.507C24.4583 105.663 24.0495 105.74 23.5993 105.74ZM28.445 105.716C28.029 105.716 27.6586 105.627 27.3338 105.449C27.0091 105.267 26.7529 105.018 26.5651 104.704C26.3774 104.389 26.2835 104.031 26.2835 103.63C26.2835 103.225 26.3774 102.867 26.5651 102.557C26.7529 102.243 27.0091 101.997 27.3338 101.819C27.6586 101.641 28.029 101.553 28.445 101.553C28.8662 101.553 29.2391 101.641 29.5638 101.819C29.8936 101.997 30.1499 102.24 30.3325 102.55C30.5203 102.859 30.6141 103.219 30.6141 103.63C30.6141 104.031 30.5203 104.389 30.3325 104.704C30.1499 105.018 29.8936 105.267 29.5638 105.449C29.2391 105.627 28.8662 105.716 28.445 105.716ZM28.445 104.902C28.6784 104.902 28.8865 104.851 29.0691 104.749C29.2518 104.648 29.3938 104.501 29.4953 104.308C29.6019 104.115 29.6552 103.889 29.6552 103.63C29.6552 103.367 29.6019 103.141 29.4953 102.953C29.3938 102.76 29.2518 102.613 29.0691 102.512C28.8865 102.41 28.681 102.359 28.4526 102.359C28.2192 102.359 28.0112 102.41 27.8285 102.512C27.6509 102.613 27.5089 102.76 27.4023 102.953C27.2958 103.141 27.2425 103.367 27.2425 103.63C27.2425 103.889 27.2958 104.115 27.4023 104.308C27.5089 104.501 27.6509 104.648 27.8285 104.749C28.0112 104.851 28.2167 104.902 28.445 104.902ZM33.83 101.553C34.1547 101.553 34.4439 101.616 34.6976 101.743C34.9564 101.87 35.1594 102.065 35.3065 102.329C35.4536 102.588 35.5272 102.923 35.5272 103.334V105.663H34.5759V103.455C34.5759 103.095 34.4896 102.826 34.3171 102.649C34.1496 102.471 33.9137 102.382 33.6093 102.382C33.386 102.382 33.1881 102.428 33.0156 102.519C32.8431 102.611 32.7086 102.748 32.6122 102.93C32.5209 103.108 32.4752 103.334 32.4752 103.608V105.663H31.5239V101.598H32.4296V102.694L32.2697 102.359C32.4118 102.101 32.6173 101.903 32.8862 101.766C33.1602 101.624 33.4748 101.553 33.83 101.553ZM37.9899 105.716C37.6499 105.716 37.3227 105.673 37.0081 105.586C36.6986 105.495 36.4525 105.386 36.2698 105.259L36.6351 104.536C36.8178 104.653 37.036 104.749 37.2897 104.825C37.5434 104.902 37.7971 104.94 38.0508 104.94C38.3501 104.94 38.5658 104.899 38.6977 104.818C38.8347 104.737 38.9032 104.628 38.9032 104.491C38.9032 104.379 38.8575 104.295 38.7662 104.239C38.6749 104.178 38.5556 104.133 38.4085 104.102C38.2613 104.072 38.0964 104.044 37.9138 104.019C37.7362 103.993 37.5561 103.96 37.3734 103.92C37.1958 103.874 37.0335 103.811 36.8863 103.729C36.7392 103.643 36.6199 103.529 36.5286 103.387C36.4373 103.245 36.3916 103.057 36.3916 102.824C36.3916 102.565 36.4652 102.342 36.6123 102.154C36.7595 101.961 36.965 101.814 37.2288 101.713C37.4977 101.606 37.8148 101.553 38.1802 101.553C38.4542 101.553 38.7307 101.583 39.0098 101.644C39.2888 101.705 39.5197 101.791 39.7023 101.903L39.337 102.626C39.1442 102.509 38.9489 102.43 38.751 102.39C38.5582 102.344 38.3654 102.321 38.1726 102.321C37.8833 102.321 37.6677 102.365 37.5256 102.451C37.3886 102.537 37.3201 102.646 37.3201 102.778C37.3201 102.9 37.3658 102.991 37.4571 103.052C37.5485 103.113 37.6677 103.161 37.8148 103.197C37.962 103.232 38.1244 103.263 38.3019 103.288C38.4846 103.308 38.6647 103.341 38.8423 103.387C39.0199 103.433 39.1823 103.496 39.3294 103.577C39.4816 103.653 39.6034 103.762 39.6947 103.904C39.7861 104.047 39.8317 104.232 39.8317 104.46C39.8317 104.714 39.7556 104.934 39.6034 105.122C39.4563 105.31 39.2457 105.457 38.9717 105.564C38.6977 105.665 38.3704 105.716 37.9899 105.716ZM42.3711 105.716C42.0261 105.716 41.7216 105.652 41.4578 105.526C41.1939 105.394 40.9885 105.196 40.8413 104.932C40.6942 104.663 40.6206 104.326 40.6206 103.92V101.598H41.572V103.79C41.572 104.156 41.6531 104.43 41.8155 104.612C41.9829 104.79 42.2189 104.879 42.5233 104.879C42.7466 104.879 42.9394 104.833 43.1018 104.742C43.2692 104.65 43.3986 104.513 43.4899 104.331C43.5863 104.148 43.6345 103.922 43.6345 103.653V101.598H44.5859V105.663H43.6802V104.567L43.84 104.902C43.703 105.165 43.5026 105.368 43.2388 105.51C42.9749 105.647 42.6857 105.716 42.3711 105.716ZM45.8315 105.663V100.015H46.7829V105.663H45.8315ZM49.762 105.716C49.3155 105.716 48.9705 105.602 48.7269 105.373C48.4834 105.14 48.3616 104.797 48.3616 104.346V100.7H49.313V104.323C49.313 104.516 49.3612 104.666 49.4576 104.772C49.5591 104.879 49.6986 104.932 49.8762 104.932C50.0893 104.932 50.2669 104.876 50.409 104.765L50.6753 105.442C50.5637 105.533 50.4267 105.602 50.2643 105.647C50.102 105.693 49.9345 105.716 49.762 105.716ZM47.6919 102.39V101.629H50.4013V102.39H47.6919ZM51.458 105.663V101.598H52.4093V105.663H51.458ZM51.9374 100.929C51.7599 100.929 51.6127 100.873 51.496 100.761C51.3844 100.65 51.3286 100.515 51.3286 100.358C51.3286 100.195 51.3844 100.061 51.496 99.9544C51.6127 99.8428 51.7599 99.787 51.9374 99.787C52.115 99.787 52.2596 99.8402 52.3713 99.9468C52.488 100.048 52.5463 100.178 52.5463 100.335C52.5463 100.502 52.4905 100.644 52.3789 100.761C52.2672 100.873 52.1201 100.929 51.9374 100.929ZM55.9641 101.553C56.2888 101.553 56.578 101.616 56.8317 101.743C57.0905 101.87 57.2935 102.065 57.4406 102.329C57.5878 102.588 57.6613 102.923 57.6613 103.334V105.663H56.71V103.455C56.71 103.095 56.6237 102.826 56.4512 102.649C56.2838 102.471 56.0478 102.382 55.7434 102.382C55.5201 102.382 55.3222 102.428 55.1497 102.519C54.9772 102.611 54.8428 102.748 54.7463 102.93C54.655 103.108 54.6094 103.334 54.6094 103.608V105.663H53.658V101.598H54.5637V102.694L54.4039 102.359C54.5459 102.101 54.7514 101.903 55.0203 101.766C55.2943 101.624 55.6089 101.553 55.9641 101.553ZM60.7175 107.192C60.342 107.192 59.9741 107.142 59.6139 107.04C59.2587 106.944 58.967 106.802 58.7386 106.614L59.1648 105.899C59.3424 106.046 59.5657 106.162 59.8346 106.249C60.1086 106.34 60.3851 106.386 60.6642 106.386C61.1107 106.386 61.438 106.282 61.646 106.074C61.854 105.871 61.9581 105.564 61.9581 105.153V104.43L62.0342 103.509L62.0037 102.588V101.598H62.9094V105.046C62.9094 105.782 62.7217 106.322 62.3462 106.667C61.9707 107.017 61.4278 107.192 60.7175 107.192ZM60.5957 105.48C60.2101 105.48 59.86 105.399 59.5454 105.236C59.2359 105.069 58.9898 104.838 58.8071 104.544C58.6295 104.25 58.5407 103.904 58.5407 103.509C58.5407 103.118 58.6295 102.776 58.8071 102.481C58.9898 102.187 59.2359 101.959 59.5454 101.796C59.86 101.634 60.2101 101.553 60.5957 101.553C60.9407 101.553 61.2502 101.621 61.5242 101.758C61.7982 101.895 62.0164 102.108 62.1788 102.398C62.3462 102.687 62.4299 103.057 62.4299 103.509C62.4299 103.96 62.3462 104.333 62.1788 104.628C62.0164 104.917 61.7982 105.132 61.5242 105.274C61.2502 105.411 60.9407 105.48 60.5957 105.48ZM60.7403 104.673C60.9788 104.673 61.1919 104.625 61.3796 104.529C61.5674 104.427 61.712 104.29 61.8134 104.118C61.92 103.94 61.9733 103.737 61.9733 103.509C61.9733 103.28 61.92 103.08 61.8134 102.907C61.712 102.73 61.5674 102.595 61.3796 102.504C61.1919 102.408 60.9788 102.359 60.7403 102.359C60.5018 102.359 60.2862 102.408 60.0934 102.504C59.9056 102.595 59.7585 102.73 59.6519 102.907C59.5505 103.08 59.4997 103.28 59.4997 103.509C59.4997 103.737 59.5505 103.94 59.6519 104.118C59.7585 104.29 59.9056 104.427 60.0934 104.529C60.2862 104.625 60.5018 104.673 60.7403 104.673ZM68.1283 105.716C67.702 105.716 67.3215 105.627 66.9866 105.449C66.6568 105.267 66.398 105.018 66.2103 104.704C66.0226 104.389 65.9287 104.031 65.9287 103.63C65.9287 103.225 66.0226 102.867 66.2103 102.557C66.398 102.243 66.6568 101.997 66.9866 101.819C67.3215 101.641 67.702 101.553 68.1283 101.553C68.524 101.553 68.8716 101.634 69.1709 101.796C69.4754 101.954 69.7063 102.187 69.8635 102.496L69.1329 102.923C69.0111 102.73 68.8614 102.588 68.6838 102.496C68.5113 102.405 68.3236 102.359 68.1206 102.359C67.8872 102.359 67.6767 102.41 67.4889 102.512C67.3012 102.613 67.1541 102.76 67.0475 102.953C66.9409 103.141 66.8877 103.367 66.8877 103.63C66.8877 103.894 66.9409 104.123 67.0475 104.315C67.1541 104.503 67.3012 104.648 67.4889 104.749C67.6767 104.851 67.8872 104.902 68.1206 104.902C68.3236 104.902 68.5113 104.856 68.6838 104.765C68.8614 104.673 69.0111 104.531 69.1329 104.338L69.8635 104.765C69.7063 105.069 69.4754 105.305 69.1709 105.472C68.8716 105.635 68.524 105.716 68.1283 105.716ZM72.4531 105.716C72.037 105.716 71.6666 105.627 71.3419 105.449C71.0172 105.267 70.7609 105.018 70.5732 104.704C70.3855 104.389 70.2916 104.031 70.2916 103.63C70.2916 103.225 70.3855 102.867 70.5732 102.557C70.7609 102.243 71.0172 101.997 71.3419 101.819C71.6666 101.641 72.037 101.553 72.4531 101.553C72.8742 101.553 73.2472 101.641 73.5719 101.819C73.9017 101.997 74.1579 102.24 74.3406 102.55C74.5283 102.859 74.6222 103.219 74.6222 103.63C74.6222 104.031 74.5283 104.389 74.3406 104.704C74.1579 105.018 73.9017 105.267 73.5719 105.449C73.2472 105.627 72.8742 105.716 72.4531 105.716ZM72.4531 104.902C72.6865 104.902 72.8945 104.851 73.0772 104.749C73.2599 104.648 73.4019 104.501 73.5034 104.308C73.61 104.115 73.6632 103.889 73.6632 103.63C73.6632 103.367 73.61 103.141 73.5034 102.953C73.4019 102.76 73.2599 102.613 73.0772 102.512C72.8945 102.41 72.689 102.359 72.4607 102.359C72.2273 102.359 72.0193 102.41 71.8366 102.512C71.659 102.613 71.517 102.76 71.4104 102.953C71.3039 103.141 71.2506 103.367 71.2506 103.63C71.2506 103.889 71.3039 104.115 71.4104 104.308C71.517 104.501 71.659 104.648 71.8366 104.749C72.0193 104.851 72.2248 104.902 72.4531 104.902ZM80.6617 101.553C80.9865 101.553 81.2731 101.616 81.5218 101.743C81.7754 101.87 81.9733 102.065 82.1154 102.329C82.2575 102.588 82.3285 102.923 82.3285 103.334V105.663H81.3771V103.455C81.3771 103.095 81.2985 102.826 81.1412 102.649C80.9839 102.471 80.7581 102.382 80.4638 102.382C80.2558 102.382 80.0706 102.428 79.9082 102.519C79.7509 102.611 79.6266 102.745 79.5353 102.923C79.449 103.1 79.4059 103.326 79.4059 103.6V105.663H78.4545V103.455C78.4545 103.095 78.3759 102.826 78.2186 102.649C78.0613 102.471 77.8355 102.382 77.5412 102.382C77.3332 102.382 77.148 102.428 76.9856 102.519C76.8283 102.611 76.704 102.745 76.6127 102.923C76.5264 103.1 76.4833 103.326 76.4833 103.6V105.663H75.532V101.598H76.4377V102.679L76.2778 102.359C76.4148 102.096 76.6127 101.895 76.8715 101.758C77.1353 101.621 77.4347 101.553 77.7696 101.553C78.1501 101.553 78.4799 101.647 78.759 101.834C79.0431 102.022 79.2309 102.306 79.3222 102.687L78.9493 102.557C79.0812 102.253 79.2994 102.009 79.6038 101.827C79.9082 101.644 80.2609 101.553 80.6617 101.553ZM85.7971 105.716C85.4673 105.716 85.1654 105.64 84.8914 105.488C84.6224 105.335 84.4068 105.107 84.2444 104.803C84.0871 104.493 84.0085 104.102 84.0085 103.63C84.0085 103.154 84.0846 102.763 84.2368 102.458C84.3941 102.154 84.6072 101.928 84.8761 101.781C85.1451 101.629 85.452 101.553 85.7971 101.553C86.1979 101.553 86.5505 101.639 86.855 101.811C87.1645 101.984 87.408 102.225 87.5856 102.535C87.7683 102.844 87.8596 103.209 87.8596 103.63C87.8596 104.052 87.7683 104.419 87.5856 104.734C87.408 105.044 87.1645 105.285 86.855 105.457C86.5505 105.63 86.1979 105.716 85.7971 105.716ZM83.5442 107.139V101.598H84.4499V102.557L84.4195 103.638L84.4956 104.719V107.139H83.5442ZM85.6905 104.902C85.9188 104.902 86.1218 104.851 86.2994 104.749C86.4821 104.648 86.6267 104.501 86.7332 104.308C86.8398 104.115 86.893 103.889 86.893 103.63C86.893 103.367 86.8398 103.141 86.7332 102.953C86.6267 102.76 86.4821 102.613 86.2994 102.512C86.1218 102.41 85.9188 102.359 85.6905 102.359C85.4622 102.359 85.2567 102.41 85.074 102.512C84.8914 102.613 84.7468 102.76 84.6402 102.953C84.5337 103.141 84.4804 103.367 84.4804 103.63C84.4804 103.889 84.5337 104.115 84.6402 104.308C84.7468 104.501 84.8914 104.648 85.074 104.749C85.2567 104.851 85.4622 104.902 85.6905 104.902ZM91.2138 105.663V104.841L91.1606 104.666V103.227C91.1606 102.948 91.0768 102.732 90.9094 102.58C90.742 102.423 90.4883 102.344 90.1483 102.344C89.92 102.344 89.6942 102.38 89.4709 102.451C89.2528 102.522 89.0676 102.621 88.9153 102.748L88.5424 102.055C88.7606 101.888 89.0194 101.763 89.3187 101.682C89.6232 101.596 89.9377 101.553 90.2625 101.553C90.8511 101.553 91.3052 101.695 91.6248 101.979C91.9496 102.258 92.1119 102.692 92.1119 103.28V105.663H91.2138ZM89.9352 105.716C89.6308 105.716 89.3644 105.665 89.1361 105.564C88.9077 105.457 88.7301 105.312 88.6033 105.13C88.4815 104.942 88.4206 104.732 88.4206 104.498C88.4206 104.27 88.4739 104.064 88.5805 103.882C88.6921 103.699 88.8722 103.554 89.1208 103.448C89.3695 103.341 89.6993 103.288 90.1103 103.288H91.29V103.92H90.1788C89.854 103.92 89.6358 103.973 89.5242 104.08C89.4126 104.181 89.3568 104.308 89.3568 104.46C89.3568 104.633 89.4253 104.77 89.5623 104.871C89.6993 104.973 89.8895 105.023 90.1331 105.023C90.3665 105.023 90.5745 104.97 90.7572 104.863C90.9449 104.757 91.0794 104.6 91.1606 104.392L91.3204 104.962C91.2291 105.201 91.0642 105.386 90.8257 105.518C90.5923 105.65 90.2955 105.716 89.9352 105.716ZM95.639 101.553C95.9637 101.553 96.253 101.616 96.5067 101.743C96.7654 101.87 96.9684 102.065 97.1155 102.329C97.2627 102.588 97.3362 102.923 97.3362 103.334V105.663H96.3849V103.455C96.3849 103.095 96.2986 102.826 96.1261 102.649C95.9587 102.471 95.7227 102.382 95.4183 102.382C95.195 102.382 94.9972 102.428 94.8246 102.519C94.6521 102.611 94.5177 102.748 94.4213 102.93C94.3299 103.108 94.2843 103.334 94.2843 103.608V105.663H93.3329V101.598H94.2386V102.694L94.0788 102.359C94.2208 102.101 94.4263 101.903 94.6953 101.766C94.9692 101.624 95.2838 101.553 95.639 101.553ZM98.8037 107.192C98.6058 107.192 98.4079 107.159 98.21 107.093C98.0121 107.027 97.8472 106.936 97.7153 106.819L98.0958 106.119C98.1923 106.206 98.3013 106.274 98.4231 106.325C98.5449 106.375 98.6692 106.401 98.7961 106.401C98.9686 106.401 99.1081 106.358 99.2147 106.271C99.3212 106.185 99.4201 106.041 99.5115 105.838L99.7474 105.305L99.8235 105.191L101.361 101.598H102.274L100.372 105.99C100.245 106.294 100.103 106.535 99.9453 106.713C99.7931 106.89 99.6206 107.015 99.4278 107.086C99.24 107.157 99.032 107.192 98.8037 107.192ZM99.6409 105.807L97.8066 101.598H98.7961L100.288 105.107L99.6409 105.807Z" fill="#231F20"/>
</svg>
