<svg width="51" height="46" viewBox="0 0 51 46" fill="none" xmlns="http://www.w3.org/2000/svg">
<path fill-rule="evenodd" clip-rule="evenodd" d="M24.0744 20.0907C19.2653 9.05407 21.9478 10.5473 29.2793 0.0773315C30.4046 2.66294 31.533 5.2481 32.6645 7.83282C31.4645 6.91688 26.9315 15.9989 24.0744 20.0907Z" fill="#FFC60B" stroke="#F9DF00" stroke-width="0.075995" stroke-miterlimit="22.93"/>
<path fill-rule="evenodd" clip-rule="evenodd" d="M35.7309 20.0907C30.9206 9.05407 33.5978 10.5473 40.9306 0.0773315C42.0576 2.66294 43.1838 5.2481 44.309 7.83282C43.1185 6.91688 38.5894 15.9989 35.7309 20.0907Z" fill="#FFC60B" stroke="#F9DF00" stroke-width="0.075995" stroke-miterlimit="22.93"/>
<path fill-rule="evenodd" clip-rule="evenodd" d="M7.73546 15.3723L0.0639648 29.1687H14.1884L7.73546 15.3723Z" fill="#FFC60B" stroke="#F9DF00" stroke-width="0.075995" stroke-miterlimit="22.93"/>
<path fill-rule="evenodd" clip-rule="evenodd" d="M13.9791 25.2624L15.7403 29.3114L26.1636 29.2368L20.052 15.403L13.9791 25.2624Z" fill="#FFC60B" stroke="#F9DF00" stroke-width="0.075995" stroke-miterlimit="22.93"/>
<path fill-rule="evenodd" clip-rule="evenodd" d="M25.7329 25.2624L27.4955 29.3114L37.9174 29.2368L31.8058 15.403L25.7329 25.2624Z" fill="#FFC60B" stroke="#F9DF00" stroke-width="0.075995" stroke-miterlimit="22.93"/>
<path fill-rule="evenodd" clip-rule="evenodd" d="M38.1081 25.2624L39.8706 29.3114L50.2926 29.2368L44.181 15.403L38.1081 25.2624Z" fill="#FFC60B" stroke="#F9DF00" stroke-width="0.075995" stroke-miterlimit="22.93"/>
<path fill-rule="evenodd" clip-rule="evenodd" d="M12.0365 20.0907C7.22884 9.05407 9.90333 10.5473 17.2362 0.0773315L20.6146 7.83282C19.4254 6.91688 14.8977 15.9989 12.0365 20.0907Z" fill="#FFC60B" stroke="#F9DF00" stroke-width="0.075995" stroke-miterlimit="22.93"/>
<path d="M8.90608 41.3845V35.518H6.59928V34.4243H12.5055V35.518H10.1987V41.3845H8.90608ZM13.3404 41.3845V36.1779H14.5007V37.6112L14.3642 37.192C14.5202 36.8409 14.7639 36.5744 15.0954 36.3924C15.4334 36.2104 15.8527 36.1194 16.3532 36.1194V37.2797C16.3012 37.2667 16.2524 37.2602 16.2069 37.2602C16.1614 37.2537 16.1159 37.2505 16.0704 37.2505C15.6089 37.2505 15.2417 37.387 14.9687 37.66C14.6957 37.9265 14.5592 38.3262 14.5592 38.8592V41.3845H13.3404ZM17.3871 41.3845V36.1779H18.6058V41.3845H17.3871ZM18.0013 35.3199C17.7738 35.3199 17.5853 35.2484 17.4358 35.1054C17.2928 34.9624 17.2213 34.7902 17.2213 34.5887C17.2213 34.3807 17.2928 34.2084 17.4358 34.0719C17.5853 33.9289 17.7738 33.8574 18.0013 33.8574C18.2288 33.8574 18.4141 33.9257 18.5571 34.0622C18.7066 34.1922 18.7813 34.3579 18.7813 34.5594C18.7813 34.7739 18.7098 34.9559 18.5668 35.1054C18.4238 35.2484 18.2353 35.3199 18.0013 35.3199ZM22.0518 41.3845L25.123 34.5594H26.371L29.452 41.3845H28.126L25.4838 35.2322H25.9908L23.3583 41.3845H22.0518ZM23.4655 39.805L23.8068 38.8105H27.4923L27.8335 39.805H23.4655ZM29.5261 41.3845L32.5974 34.5594H33.8454L36.9264 41.3845H35.6004L32.9581 35.2322H33.4651L30.8326 41.3845H29.5261ZM30.9399 39.805L31.2811 38.8105H34.9667L35.3079 39.805H30.9399ZM37.0005 41.3845L40.0718 34.5594H41.3198L44.4008 41.3845H43.0748L40.4325 35.2322H40.9395L38.307 41.3845H37.0005ZM38.4143 39.805L38.7555 38.8105H42.441L42.7823 39.805H38.4143Z" fill="#231F20"/>
<path d="M9.60545 44.5124C9.43142 44.5124 9.26935 44.4841 9.11924 44.4276C8.97131 44.3689 8.84188 44.2873 8.73093 44.1829C8.62216 44.0763 8.53731 43.9512 8.4764 43.8076C8.41549 43.664 8.38503 43.5074 8.38503 43.3377C8.38503 43.168 8.41549 43.0114 8.4764 42.8678C8.53731 42.7242 8.62324 42.6002 8.73419 42.4958C8.84514 42.3892 8.97458 42.3076 9.12251 42.2511C9.27044 42.1923 9.43251 42.163 9.60872 42.163C9.79581 42.163 9.96658 42.1956 10.121 42.2609C10.2755 42.3239 10.406 42.4186 10.5126 42.5447L10.2385 42.8025C10.1558 42.7133 10.0634 42.647 9.96114 42.6035C9.85889 42.5578 9.74795 42.535 9.6283 42.535C9.50865 42.535 9.39879 42.5545 9.29872 42.5937C9.20082 42.6329 9.11489 42.6883 9.04093 42.7601C8.96914 42.8319 8.91258 42.9167 8.87124 43.0146C8.83209 43.1125 8.81251 43.2202 8.81251 43.3377C8.81251 43.4552 8.83209 43.5629 8.87124 43.6607C8.91258 43.7586 8.96914 43.8435 9.04093 43.9153C9.11489 43.9871 9.20082 44.0425 9.29872 44.0817C9.39879 44.1209 9.50865 44.1404 9.6283 44.1404C9.74795 44.1404 9.85889 44.1187 9.96114 44.0752C10.0634 44.0295 10.1558 43.961 10.2385 43.8696L10.5126 44.1306C10.406 44.2546 10.2755 44.3493 10.121 44.4145C9.96658 44.4798 9.79472 44.5124 9.60545 44.5124ZM11.6427 44.5022C11.4678 44.5022 11.312 44.4649 11.1755 44.3902C11.039 44.3134 10.9313 44.2089 10.8523 44.0766C10.7734 43.9444 10.7339 43.794 10.7339 43.6255C10.7339 43.4548 10.7734 43.3044 10.8523 43.1743C10.9313 43.042 11.039 42.9386 11.1755 42.8639C11.312 42.7892 11.4678 42.7519 11.6427 42.7519C11.8197 42.7519 11.9765 42.7892 12.113 42.8639C12.2517 42.9386 12.3594 43.041 12.4362 43.1711C12.5152 43.3012 12.5546 43.4527 12.5546 43.6255C12.5546 43.794 12.5152 43.9444 12.4362 44.0766C12.3594 44.2089 12.2517 44.3134 12.113 44.3902C11.9765 44.4649 11.8197 44.5022 11.6427 44.5022ZM11.6427 44.1598C11.7408 44.1598 11.8283 44.1385 11.9051 44.0958C11.9819 44.0532 12.0416 43.9913 12.0842 43.9102C12.129 43.8292 12.1514 43.7342 12.1514 43.6255C12.1514 43.5145 12.129 43.4196 12.0842 43.3407C12.0416 43.2596 11.9819 43.1977 11.9051 43.1551C11.8283 43.1124 11.7419 43.0911 11.6459 43.0911C11.5477 43.0911 11.4603 43.1124 11.3835 43.1551C11.3088 43.1977 11.2491 43.2596 11.2043 43.3407C11.1595 43.4196 11.1371 43.5145 11.1371 43.6255C11.1371 43.7342 11.1595 43.8292 11.2043 43.9102C11.2491 43.9913 11.3088 44.0532 11.3835 44.0958C11.4603 44.1385 11.5467 44.1598 11.6427 44.1598ZM13.9066 42.7519C14.0431 42.7519 14.1647 42.7786 14.2714 42.8319C14.3802 42.8852 14.4655 42.9674 14.5274 43.0783C14.5892 43.1871 14.6202 43.3279 14.6202 43.5007V44.4798H14.2202V43.5519C14.2202 43.4004 14.1839 43.2873 14.1114 43.2127C14.041 43.138 13.9418 43.1007 13.8138 43.1007C13.72 43.1007 13.6368 43.1199 13.5642 43.1583C13.4917 43.1967 13.4352 43.2543 13.3947 43.3311C13.3563 43.4057 13.3371 43.5007 13.3371 43.6159V44.4798H12.9371V42.7711H13.3179V43.2319L13.2507 43.0911C13.3104 42.9823 13.3968 42.8991 13.5099 42.8415C13.625 42.7818 13.7573 42.7519 13.9066 42.7519ZM15.6555 44.5022C15.5126 44.5022 15.375 44.4841 15.2428 44.4478C15.1126 44.4094 15.0092 44.3635 14.9324 44.3102L15.086 44.0062C15.1628 44.0553 15.2545 44.0958 15.3612 44.1278C15.4678 44.1598 15.5745 44.1758 15.6811 44.1758C15.807 44.1758 15.8977 44.1588 15.9531 44.1246C16.0107 44.0905 16.0395 44.0446 16.0395 43.987C16.0395 43.9401 16.0203 43.9049 15.9819 43.8814C15.9435 43.8558 15.8934 43.8366 15.8315 43.8238C15.7697 43.811 15.7003 43.7993 15.6235 43.7886C15.5489 43.778 15.4731 43.7641 15.3964 43.747C15.3217 43.7278 15.2534 43.7012 15.1916 43.6671C15.1297 43.6308 15.0796 43.5828 15.0412 43.5231C15.0028 43.4633 14.9836 43.3844 14.9836 43.2863C14.9836 43.1775 15.0145 43.0836 15.0764 43.0047C15.1382 42.9236 15.2246 42.8618 15.3356 42.8191C15.4486 42.7743 15.5819 42.7519 15.7355 42.7519C15.8507 42.7519 15.967 42.7647 16.0843 42.7903C16.2016 42.8159 16.2987 42.8522 16.3755 42.8991L16.2219 43.2031C16.1408 43.154 16.0587 43.121 15.9755 43.1039C15.8945 43.0847 15.8134 43.0751 15.7323 43.0751C15.6107 43.0751 15.5201 43.0932 15.4603 43.1295C15.4028 43.1658 15.374 43.2116 15.374 43.2671C15.374 43.3183 15.3932 43.3567 15.4315 43.3823C15.4699 43.4079 15.5201 43.4281 15.5819 43.4431C15.6438 43.458 15.7121 43.4708 15.7867 43.4815C15.8635 43.49 15.9392 43.5039 16.0139 43.5231C16.0886 43.5423 16.1568 43.5689 16.2187 43.6031C16.2827 43.6351 16.3339 43.6809 16.3723 43.7406C16.4107 43.8004 16.4299 43.8782 16.4299 43.9742C16.4299 44.0809 16.3979 44.1737 16.3339 44.2526C16.272 44.3315 16.1835 44.3934 16.0683 44.4382C15.9531 44.4809 15.8155 44.5022 15.6555 44.5022ZM17.4975 44.5022C17.3524 44.5022 17.2244 44.4755 17.1135 44.4222C17.0026 44.3667 16.9162 44.2835 16.8543 44.1726C16.7925 44.0596 16.7615 43.9177 16.7615 43.747V42.7711H17.1615V43.6926C17.1615 43.8462 17.1956 43.9614 17.2639 44.0382C17.3343 44.1129 17.4335 44.1502 17.5615 44.1502C17.6553 44.1502 17.7364 44.131 17.8047 44.0926C17.8751 44.0542 17.9295 43.9966 17.9679 43.9198C18.0084 43.843 18.0287 43.7481 18.0287 43.6351V42.7711H18.4286V44.4798H18.0479V44.019L18.115 44.1598C18.0575 44.2707 17.9732 44.3561 17.8623 44.4158C17.7513 44.4734 17.6297 44.5022 17.4975 44.5022ZM18.9523 44.4798V42.1056H19.3523V44.4798H18.9523ZM20.6048 44.5022C20.4171 44.5022 20.272 44.4542 20.1696 44.3582C20.0672 44.2601 20.016 44.1161 20.016 43.9262V42.3935H20.416V43.9166C20.416 43.9977 20.4363 44.0606 20.4768 44.1054C20.5195 44.1502 20.5781 44.1726 20.6528 44.1726C20.7424 44.1726 20.817 44.1492 20.8768 44.1022L20.9888 44.387C20.9418 44.4254 20.8842 44.4542 20.816 44.4734C20.7477 44.4926 20.6773 44.5022 20.6048 44.5022ZM19.7344 43.1039V42.7839H20.8736V43.1039H19.7344ZM21.3178 44.4798V42.7711H21.7178V44.4798H21.3178ZM21.5194 42.4895C21.4447 42.4895 21.3828 42.4661 21.3338 42.4191C21.2869 42.3722 21.2634 42.3157 21.2634 42.2495C21.2634 42.1813 21.2869 42.1248 21.3338 42.08C21.3828 42.033 21.4447 42.0096 21.5194 42.0096C21.594 42.0096 21.6548 42.032 21.7018 42.0768C21.7508 42.1194 21.7754 42.1738 21.7754 42.2399C21.7754 42.3103 21.7519 42.3701 21.705 42.4191C21.658 42.4661 21.5962 42.4895 21.5194 42.4895ZM23.2123 42.7519C23.3488 42.7519 23.4704 42.7786 23.577 42.8319C23.6858 42.8852 23.7712 42.9674 23.833 43.0783C23.8949 43.1871 23.9258 43.3279 23.9258 43.5007V44.4798H23.5258V43.5519C23.5258 43.4004 23.4896 43.2873 23.417 43.2127C23.3467 43.138 23.2475 43.1007 23.1195 43.1007C23.0256 43.1007 22.9424 43.1199 22.8699 43.1583C22.7974 43.1967 22.7408 43.2543 22.7003 43.3311C22.6619 43.4057 22.6427 43.5007 22.6427 43.6159V44.4798H22.2427V42.7711H22.6235V43.2319L22.5563 43.0911C22.616 42.9823 22.7024 42.8991 22.8155 42.8415C22.9307 42.7818 23.0629 42.7519 23.2123 42.7519ZM25.2107 45.123C25.0528 45.123 24.8982 45.1016 24.7467 45.059C24.5974 45.0184 24.4747 44.9587 24.3787 44.8798L24.5579 44.579C24.6326 44.6409 24.7264 44.6899 24.8395 44.7262C24.9547 44.7646 25.071 44.7838 25.1883 44.7838C25.376 44.7838 25.5136 44.74 25.6011 44.6526C25.6885 44.5673 25.7322 44.4382 25.7322 44.2654V43.9614L25.7642 43.5743L25.7514 43.1871V42.7711H26.1322V44.2206C26.1322 44.5299 26.0533 44.7571 25.8954 44.9022C25.7376 45.0494 25.5093 45.123 25.2107 45.123ZM25.1595 44.403C24.9974 44.403 24.8502 44.3689 24.7179 44.3006C24.5878 44.2302 24.4843 44.1332 24.4075 44.0094C24.3329 43.8857 24.2955 43.7406 24.2955 43.5743C24.2955 43.41 24.3329 43.266 24.4075 43.1423C24.4843 43.0186 24.5878 42.9226 24.7179 42.8543C24.8502 42.786 24.9974 42.7519 25.1595 42.7519C25.3045 42.7519 25.4347 42.7807 25.5499 42.8383C25.665 42.8959 25.7568 42.9855 25.825 43.1071C25.8954 43.2287 25.9306 43.3844 25.9306 43.5743C25.9306 43.7641 25.8954 43.9209 25.825 44.0446C25.7568 44.1662 25.665 44.2569 25.5499 44.3166C25.4347 44.3742 25.3045 44.403 25.1595 44.403ZM25.2203 44.0638C25.3205 44.0638 25.4101 44.0436 25.4891 44.003C25.568 43.9604 25.6288 43.9028 25.6714 43.8302C25.7162 43.7556 25.7386 43.6703 25.7386 43.5743C25.7386 43.4783 25.7162 43.394 25.6714 43.3215C25.6288 43.2468 25.568 43.1903 25.4891 43.1519C25.4101 43.1114 25.3205 43.0911 25.2203 43.0911C25.12 43.0911 25.0294 43.1114 24.9483 43.1519C24.8694 43.1903 24.8075 43.2468 24.7627 43.3215C24.72 43.394 24.6987 43.4783 24.6987 43.5743C24.6987 43.6703 24.72 43.7556 24.7627 43.8302C24.8075 43.9028 24.8694 43.9604 24.9483 44.003C25.0294 44.0436 25.12 44.0638 25.2203 44.0638ZM28.3263 44.5022C28.1471 44.5022 27.9871 44.4649 27.8464 44.3902C27.7077 44.3134 27.5989 44.2089 27.52 44.0766C27.441 43.9444 27.4016 43.794 27.4016 43.6255C27.4016 43.4548 27.441 43.3044 27.52 43.1743C27.5989 43.042 27.7077 42.9386 27.8464 42.8639C27.9871 42.7892 28.1471 42.7519 28.3263 42.7519C28.4927 42.7519 28.6388 42.786 28.7647 42.8543C28.8927 42.9204 28.9897 43.0186 29.0559 43.1487L28.7487 43.3279C28.6975 43.2468 28.6346 43.1871 28.5599 43.1487C28.4874 43.1103 28.4085 43.0911 28.3231 43.0911C28.225 43.0911 28.1365 43.1124 28.0575 43.1551C27.9786 43.1977 27.9168 43.2596 27.872 43.3407C27.8272 43.4196 27.8048 43.5145 27.8048 43.6255C27.8048 43.7364 27.8272 43.8324 27.872 43.9134C27.9168 43.9924 27.9786 44.0532 28.0575 44.0958C28.1365 44.1385 28.225 44.1598 28.3231 44.1598C28.4085 44.1598 28.4874 44.1406 28.5599 44.1022C28.6346 44.0638 28.6975 44.0041 28.7487 43.923L29.0559 44.1022C28.9897 44.2302 28.8927 44.3294 28.7647 44.3998C28.6388 44.4681 28.4927 44.5022 28.3263 44.5022ZM30.1446 44.5022C29.9697 44.5022 29.8139 44.4649 29.6774 44.3902C29.5409 44.3134 29.4332 44.2089 29.3542 44.0766C29.2753 43.9444 29.2358 43.794 29.2358 43.6255C29.2358 43.4548 29.2753 43.3044 29.3542 43.1743C29.4332 43.042 29.5409 42.9386 29.6774 42.8639C29.8139 42.7892 29.9697 42.7519 30.1446 42.7519C30.3216 42.7519 30.4784 42.7892 30.6149 42.8639C30.7536 42.9386 30.8613 43.041 30.9381 43.1711C31.0171 43.3012 31.0565 43.4527 31.0565 43.6255C31.0565 43.794 31.0171 43.9444 30.9381 44.0766C30.8613 44.2089 30.7536 44.3134 30.6149 44.3902C30.4784 44.4649 30.3216 44.5022 30.1446 44.5022ZM30.1446 44.1598C30.2427 44.1598 30.3302 44.1385 30.407 44.0958C30.4838 44.0532 30.5435 43.9913 30.5861 43.9102C30.6309 43.8292 30.6533 43.7342 30.6533 43.6255C30.6533 43.5145 30.6309 43.4196 30.5861 43.3407C30.5435 43.2596 30.4838 43.1977 30.407 43.1551C30.3302 43.1124 30.2438 43.0911 30.1478 43.0911C30.0497 43.0911 29.9622 43.1124 29.8854 43.1551C29.8107 43.1977 29.751 43.2596 29.7062 43.3407C29.6614 43.4196 29.639 43.5145 29.639 43.6255C29.639 43.7342 29.6614 43.8292 29.7062 43.9102C29.751 43.9913 29.8107 44.0532 29.8854 44.0958C29.9622 44.1385 30.0486 44.1598 30.1446 44.1598ZM33.5957 42.7519C33.7322 42.7519 33.8527 42.7786 33.9572 42.8319C34.0639 42.8852 34.1471 42.9674 34.2068 43.0783C34.2665 43.1871 34.2964 43.3279 34.2964 43.5007V44.4798H33.8964V43.5519C33.8964 43.4004 33.8634 43.2873 33.7972 43.2127C33.7311 43.138 33.6362 43.1007 33.5125 43.1007C33.425 43.1007 33.3471 43.1199 33.2789 43.1583C33.2127 43.1967 33.1605 43.2532 33.1221 43.3279C33.0858 43.4025 33.0677 43.4975 33.0677 43.6127V44.4798H32.6677V43.5519C32.6677 43.4004 32.6346 43.2873 32.5685 43.2127C32.5024 43.138 32.4075 43.1007 32.2837 43.1007C32.1963 43.1007 32.1184 43.1199 32.0502 43.1583C31.984 43.1967 31.9318 43.2532 31.8934 43.3279C31.8571 43.4025 31.839 43.4975 31.839 43.6127V44.4798H31.439V42.7711H31.8198V43.2255L31.7526 43.0911C31.8102 42.9802 31.8934 42.8959 32.0022 42.8383C32.1131 42.7807 32.2389 42.7519 32.3797 42.7519C32.5397 42.7519 32.6784 42.7914 32.7957 42.8703C32.9152 42.9492 32.9941 43.0687 33.0325 43.2287L32.8757 43.1743C32.9312 43.0463 33.0229 42.9439 33.1509 42.8671C33.2789 42.7903 33.4271 42.7519 33.5957 42.7519ZM35.7547 44.5022C35.616 44.5022 35.4891 44.4702 35.3739 44.4062C35.2608 44.3422 35.1702 44.2462 35.1019 44.1182C35.0358 43.9881 35.0027 43.8238 35.0027 43.6255C35.0027 43.4249 35.0347 43.2607 35.0987 43.1327C35.1648 43.0047 35.2544 42.9098 35.3675 42.8479C35.4805 42.7839 35.6096 42.7519 35.7547 42.7519C35.9232 42.7519 36.0714 42.7882 36.1994 42.8607C36.3296 42.9332 36.4319 43.0346 36.5066 43.1647C36.5834 43.2948 36.6218 43.4484 36.6218 43.6255C36.6218 43.8025 36.5834 43.9572 36.5066 44.0894C36.4319 44.2195 36.3296 44.3209 36.1994 44.3934C36.0714 44.4659 35.9232 44.5022 35.7547 44.5022ZM34.8075 45.1006V42.7711H35.1883V43.1743L35.1755 43.6287L35.2075 44.083V45.1006H34.8075ZM35.7099 44.1598C35.8059 44.1598 35.8912 44.1385 35.9658 44.0958C36.0426 44.0532 36.1034 43.9913 36.1482 43.9102C36.193 43.8292 36.2154 43.7342 36.2154 43.6255C36.2154 43.5145 36.193 43.4196 36.1482 43.3407C36.1034 43.2596 36.0426 43.1977 35.9658 43.1551C35.8912 43.1124 35.8059 43.0911 35.7099 43.0911C35.6139 43.0911 35.5275 43.1124 35.4507 43.1551C35.3739 43.1977 35.3131 43.2596 35.2683 43.3407C35.2235 43.4196 35.2011 43.5145 35.2011 43.6255C35.2011 43.7342 35.2235 43.8292 35.2683 43.9102C35.3131 43.9913 35.3739 44.0532 35.4507 44.0958C35.5275 44.1385 35.6139 44.1598 35.7099 44.1598ZM38.032 44.4798V44.1342L38.0096 44.0606V43.4559C38.0096 43.3385 37.9744 43.2479 37.904 43.1839C37.8336 43.1178 37.7269 43.0847 37.584 43.0847C37.488 43.0847 37.3931 43.0996 37.2992 43.1295C37.2075 43.1594 37.1296 43.2009 37.0656 43.2543L36.9089 42.9631C37.0006 42.8927 37.1094 42.8404 37.2352 42.8063C37.3632 42.77 37.4955 42.7519 37.632 42.7519C37.8795 42.7519 38.0704 42.8116 38.2048 42.9311C38.3413 43.0484 38.4096 43.2308 38.4096 43.4783V44.4798H38.032ZM37.4944 44.5022C37.3664 44.5022 37.2544 44.4809 37.1584 44.4382C37.0624 44.3934 36.9878 44.3326 36.9345 44.2558C36.8833 44.1769 36.8577 44.0884 36.8577 43.9902C36.8577 43.8942 36.8801 43.8078 36.9249 43.731C36.9718 43.6543 37.0475 43.5935 37.152 43.5487C37.2566 43.5039 37.3952 43.4815 37.568 43.4815H38.064V43.747H37.5968C37.4603 43.747 37.3686 43.7694 37.3216 43.8142C37.2747 43.8569 37.2512 43.9102 37.2512 43.9742C37.2512 44.0468 37.28 44.1044 37.3376 44.147C37.3952 44.1897 37.4752 44.211 37.5776 44.211C37.6757 44.211 37.7632 44.1886 37.84 44.1438C37.9189 44.099 37.9755 44.0329 38.0096 43.9454L38.0768 44.1854C38.0384 44.2857 37.9691 44.3635 37.8688 44.419C37.7707 44.4745 37.6459 44.5022 37.4944 44.5022ZM39.8924 42.7519C40.0289 42.7519 40.1505 42.7786 40.2572 42.8319C40.366 42.8852 40.4513 42.9674 40.5132 43.0783C40.575 43.1871 40.606 43.3279 40.606 43.5007V44.4798H40.206V43.5519C40.206 43.4004 40.1697 43.2873 40.0972 43.2127C40.0268 43.138 39.9276 43.1007 39.7996 43.1007C39.7058 43.1007 39.6226 43.1199 39.55 43.1583C39.4775 43.1967 39.421 43.2543 39.3804 43.3311C39.342 43.4057 39.3228 43.5007 39.3228 43.6159V44.4798H38.9229V42.7711H39.3036V43.2319L39.2365 43.0911C39.2962 42.9823 39.3826 42.8991 39.4956 42.8415C39.6108 42.7818 39.7431 42.7519 39.8924 42.7519ZM41.2229 45.123C41.1397 45.123 41.0565 45.1091 40.9733 45.0814C40.8901 45.0536 40.8208 45.0152 40.7653 44.9662L40.9253 44.6718C40.9658 44.708 41.0117 44.7368 41.0629 44.7582C41.1141 44.7795 41.1664 44.7902 41.2197 44.7902C41.2922 44.7902 41.3509 44.772 41.3957 44.7358C41.4405 44.6995 41.4821 44.6387 41.5205 44.5534L41.6197 44.3294L41.6517 44.2814L42.298 42.7711H42.682L41.8821 44.6174C41.8287 44.7454 41.769 44.8467 41.7029 44.9214C41.6389 44.996 41.5663 45.0483 41.4853 45.0782C41.4064 45.108 41.3189 45.123 41.2229 45.123ZM41.5749 44.5406L40.8037 42.7711H41.2197L41.8469 44.2462L41.5749 44.5406Z" fill="#231F20"/>
</svg>
