<svg width="28" height="29" viewBox="0 0 28 29" fill="none" xmlns="http://www.w3.org/2000/svg">
<path d="M15.4715 0.424316V2.35275C17.3789 2.35275 19.1658 2.83486 20.8323 3.79908C22.4184 4.74321 23.6833 6.00875 24.6269 7.59569C25.5907 9.26299 26.0725 11.0508 26.0725 12.9592H28C28 10.6892 27.4278 8.58 26.2834 6.63147C25.1791 4.74321 23.6833 3.24666 21.796 2.14183C19.8485 0.996821 17.7403 0.424316 15.4715 0.424316ZM5.50296 3.31697C4.96086 3.31697 4.48903 3.48772 4.08748 3.82921L0.98548 6.99305L1.07583 6.93279C0.573887 7.35464 0.242605 7.87692 0.0819839 8.49965C-0.0585599 9.12237 -0.0184045 9.72501 0.20245 10.3076C0.764625 11.8744 1.51754 13.4814 2.46119 15.1286C3.78632 17.3986 5.36241 19.4375 7.18948 21.2454C10.1208 24.1983 13.7649 26.5285 18.1218 28.236H18.1519C18.7341 28.4369 19.3164 28.477 19.8987 28.3565C20.501 28.236 21.033 27.9748 21.4948 27.5731L24.5366 24.5298C24.9382 24.128 25.1389 23.6359 25.1389 23.0533C25.1389 22.4507 24.9382 21.9485 24.5366 21.5467L20.5913 17.5693C20.1898 17.1676 19.6878 16.9667 19.0855 16.9667C18.4832 16.9667 17.9812 17.1676 17.5797 17.5693L15.6823 19.4978C14.1564 18.7746 12.8313 17.8807 11.707 16.816C10.5826 15.7313 9.68915 14.4155 9.02659 12.8688L10.954 10.9403C11.3757 10.4984 11.5865 9.97611 11.5865 9.37347C11.5865 8.75074 11.3456 8.24855 10.8637 7.86688L10.954 7.95727L6.91843 3.82921C6.51688 3.48772 6.04506 3.31697 5.50296 3.31697ZM15.4715 4.28119V6.20963C16.6963 6.20963 17.8206 6.51095 18.8446 7.11358C19.8886 7.71622 20.7118 8.53982 21.3141 9.58439C21.9165 10.6089 22.2176 11.7338 22.2176 12.9592H24.1451C24.1451 11.3923 23.7536 9.93593 22.9705 8.59004C22.1875 7.28433 21.1435 6.23976 19.8384 5.45633C18.4932 4.6729 17.0376 4.28119 15.4715 4.28119ZM5.50296 5.24541C5.56319 5.24541 5.63346 5.27554 5.71377 5.3358L9.65904 9.37347C9.67912 9.45382 9.65904 9.52413 9.5988 9.58439L6.73774 12.4168L6.94855 13.0194L7.34007 13.8631C7.66131 14.5461 8.03275 15.209 8.45438 15.8518C9.03663 16.7558 9.67912 17.5292 10.3818 18.172C11.3255 19.096 12.4599 19.9397 13.785 20.703C14.4476 21.0847 15.0097 21.3659 15.4715 21.5467L16.0739 21.8179L18.9952 18.8951C19.0353 18.8549 19.0654 18.8349 19.0855 18.8349C19.1056 18.8349 19.1357 18.8549 19.1759 18.8951L23.2416 22.9629C23.2817 23.0031 23.3018 23.0332 23.3018 23.0533C23.3018 23.0533 23.2817 23.0734 23.2416 23.1136L20.2299 26.0966C19.7882 26.4783 19.3064 26.5787 18.7843 26.398C14.6885 24.811 11.2753 22.6415 8.54473 19.8895C6.8582 18.2021 5.38249 16.2837 4.1176 14.1343C3.2141 12.5875 2.51138 11.091 2.00944 9.64466V9.61452C1.92913 9.43373 1.91909 9.22281 1.97932 8.98176C2.03956 8.72061 2.14999 8.51973 2.31061 8.37912L5.29214 5.3358C5.35238 5.27554 5.42265 5.24541 5.50296 5.24541ZM15.4715 8.13806V10.0665C16.2746 10.0665 16.9573 10.3477 17.5194 10.9102C18.0816 11.4727 18.3627 12.1556 18.3627 12.9592H20.2902C20.2902 12.0954 20.0693 11.2919 19.6276 10.5486C19.206 9.80536 18.6237 9.22281 17.8808 8.80096C17.138 8.35903 16.3349 8.13806 15.4715 8.13806Z" fill="#828282"/>
</svg>
